<svg width="24" height="24" viewBox="0 0 24 24" fill="none" xmlns="http://www.w3.org/2000/svg">
<g clip-path="url(#clip0_710_63)">
<path d="M9.39709 14.6585L6.54395 14.4986C6.47188 14.4947 6.4025 14.4699 6.34419 14.4274C6.28587 14.3849 6.24112 14.3264 6.21534 14.2589C6.18955 14.1915 6.18384 14.1181 6.19889 14.0475C6.21394 13.9769 6.24911 13.9122 6.30015 13.8612L6.29959 13.8605L8.18537 11.9747L6.28075 9.84402C6.23275 9.79032 6.20132 9.72388 6.19024 9.65272C6.17915 9.58156 6.1889 9.50871 6.21829 9.44297C6.24769 9.37722 6.29548 9.32138 6.3559 9.28219C6.41632 9.24299 6.48679 9.22212 6.55881 9.22208V9.22053H9.22515L9.385 6.36739C9.38895 6.29532 9.41368 6.22594 9.45621 6.16763C9.49874 6.10931 9.55725 6.06456 9.62466 6.03878C9.69208 6.013 9.76551 6.00729 9.8361 6.02234C9.90669 6.03739 9.97141 6.07256 10.0224 6.12359L10.0231 6.12298L11.9089 8.00881L14.0396 6.10419C14.1133 6.03822 14.2103 6.00424 14.3091 6.00973C14.4079 6.01521 14.5005 6.05971 14.5665 6.13344C14.6278 6.20178 14.6616 6.29042 14.6615 6.38225H14.6631V9.04859L17.5162 9.20844C17.5883 9.21238 17.6577 9.2371 17.716 9.27963C17.7743 9.32215 17.8191 9.38066 17.8448 9.44807C17.8706 9.51548 17.8763 9.58892 17.8613 9.65951C17.8462 9.7301 17.8111 9.79482 17.76 9.84584L17.7606 9.84645L15.8748 11.7323L17.7794 13.863C17.8454 13.9368 17.8794 14.0337 17.8739 14.1325C17.8684 14.2313 17.8239 14.3239 17.7502 14.3899C17.6818 14.4512 17.5932 14.4851 17.5014 14.4849V14.4865H14.835L14.6752 17.3396C14.6712 17.4117 14.6464 17.481 14.6039 17.5393C14.5614 17.5976 14.5029 17.6424 14.4355 17.6682C14.3681 17.6939 14.2946 17.6997 14.2241 17.6846C14.1535 17.6696 14.0888 17.6344 14.0377 17.5834L14.0371 17.584L12.1513 15.6982L10.0206 17.6029C9.94682 17.6688 9.84988 17.7028 9.75108 17.6973C9.65228 17.6918 9.5597 17.6473 9.4937 17.5736C9.43236 17.5053 9.39851 17.4166 9.39868 17.3248H9.39709V14.6585ZM7.42056 13.799L9.77176 13.9304C9.87113 13.9305 9.96642 13.9699 10.0367 14.0402C10.1069 14.1105 10.1464 14.2057 10.1464 14.3051V16.4894L11.8936 14.9276L11.9019 14.919C11.9721 14.8488 12.0674 14.8093 12.1667 14.8093C12.2661 14.8093 12.3614 14.8488 12.4316 14.919L13.9756 16.463L14.107 14.1118C14.107 14.0125 14.1465 13.9172 14.2167 13.8469C14.287 13.7767 14.3823 13.7372 14.4817 13.7372H16.6659L15.1042 11.99L15.0956 11.9818C15.0254 11.9115 14.9859 11.8162 14.9859 11.7169C14.9859 11.6175 15.0254 11.5222 15.0956 11.452L16.6396 9.90795L14.2884 9.77661C14.189 9.7766 14.0937 9.73712 14.0235 9.66686C13.9532 9.5966 13.9137 9.5013 13.9137 9.40194V7.21766L12.1666 8.77944L12.1583 8.78797C12.088 8.85821 11.9928 8.89767 11.8934 8.89767C11.7941 8.89767 11.6988 8.85821 11.6285 8.78797L10.0846 7.244L9.95317 9.5952C9.95316 9.69457 9.91368 9.78986 9.84341 9.86012C9.77315 9.93038 9.67786 9.96986 9.5785 9.96988H7.39421L8.956 11.717L8.96457 11.7253C9.03481 11.7956 9.07427 11.8908 9.07427 11.9902C9.07427 12.0895 9.03481 12.1848 8.96457 12.255L7.42056 13.799Z" fill="white"/>
<path d="M5.31712 17.9897L3.77039 17.9651C3.50541 17.961 3.294 17.7427 3.29813 17.4778C3.30225 17.2128 3.52045 17.0014 3.78544 17.0055L6.26184 17.045L10.9842 12.3227H4.34831L2.62519 14.1803C2.44439 14.3746 2.14027 14.3855 1.94597 14.2047C1.75167 14.0239 1.7407 13.7198 1.9215 13.5255L3.03722 12.3227H0.481687C0.215672 12.3227 0 12.107 0 11.841C0 11.575 0.215672 11.3593 0.481687 11.3593H3.00431L1.92895 10.2491C1.74403 10.059 1.74825 9.75483 1.93842 9.56991C2.12855 9.38498 2.43267 9.3892 2.61764 9.57933L4.3418 11.3593H10.8548L6.27844 6.783L3.74667 6.87806C3.48173 6.88739 3.25927 6.68016 3.24994 6.41522C3.24056 6.15028 3.4478 5.92786 3.71278 5.91848L5.35238 5.85694L3.54483 4.04939C3.35677 3.86128 3.35677 3.55631 3.54483 3.36825C3.73289 3.18014 4.03786 3.18014 4.22597 3.36825L6.01022 5.1525L6.03492 3.60572C6.03905 3.34078 6.2573 3.12933 6.52223 3.13345C6.78717 3.13758 6.99863 3.35583 6.9945 3.62077L6.95503 6.09727L11.524 10.6663V4.01245L9.744 2.28834C9.55383 2.10342 9.54966 1.79925 9.73458 1.60912C9.9195 1.41895 10.2237 1.41473 10.4138 1.59966L11.524 2.67502V0.481687C11.524 0.215672 11.7397 0 12.0057 0C12.2717 0 12.4874 0.215672 12.4874 0.481687V2.70792L13.6901 1.59216C13.8844 1.41136 14.1885 1.42233 14.3693 1.61662C14.5501 1.81097 14.5392 2.11505 14.3449 2.29584L12.4874 4.01902V10.8195L17.326 5.98083L17.2865 3.50437C17.2824 3.23939 17.4938 3.02119 17.7588 3.01706C18.0237 3.01294 18.242 3.22439 18.2461 3.48933L18.2708 5.03611L19.8222 3.48464C20.0103 3.29658 20.3152 3.29658 20.5034 3.48464C20.6914 3.67275 20.6914 3.97772 20.5034 4.16583L18.9286 5.74055L20.5683 5.80209C20.8333 5.81142 21.0405 6.03389 21.0312 6.29883C21.0218 6.56381 20.7994 6.771 20.5344 6.76167L18.0025 6.66661L13.3098 11.3593H19.9875L21.7117 9.57933C21.8966 9.3892 22.2007 9.38498 22.3909 9.56991C22.581 9.75483 22.5853 10.059 22.4003 10.2491L21.325 11.3593H23.5183C23.7843 11.3593 24 11.575 24 11.841C24 12.107 23.7843 12.3227 23.5183 12.3227H21.2921L22.4078 13.5255C22.5886 13.7198 22.5777 14.0239 22.3834 14.2047C22.189 14.3855 21.885 14.3746 21.7041 14.1803L19.981 12.3227H13.1805L18.0192 17.1614L20.4957 17.1219C20.7606 17.1178 20.9789 17.3292 20.983 17.5942C20.9871 17.8591 20.7757 18.0773 20.5107 18.0815L18.9638 18.1061L20.5153 19.6575C20.7034 19.8457 20.7034 20.1506 20.5153 20.3387C20.3272 20.5268 20.0223 20.5268 19.8342 20.3387L18.2595 18.764L18.1979 20.4037C18.1886 20.6686 17.9661 20.8758 17.7012 20.8665C17.4362 20.8571 17.229 20.6347 17.2383 20.3698L17.3334 17.8379L12.4874 12.9919V19.6517L14.3449 21.3748C14.5392 21.5556 14.5501 21.8597 14.3693 22.054C14.1885 22.2483 13.8844 22.2593 13.6901 22.0785L12.4874 20.9628V23.5184C12.4874 23.7844 12.2717 24 12.0057 24C11.7397 24 11.524 23.7844 11.524 23.5184V20.9957L10.4138 22.071C10.2237 22.2559 9.9195 22.2517 9.73458 22.0616C9.54966 21.8714 9.55383 21.5672 9.744 21.3823L11.524 19.6583V13.1452L6.94763 17.7215L7.04273 20.2534C7.05206 20.5183 6.84483 20.7408 6.57989 20.7501C6.31491 20.7594 6.09248 20.5522 6.08316 20.2873L6.02156 18.6476L4.21397 20.4552C4.02591 20.6432 3.72094 20.6432 3.53283 20.4552C3.34477 20.2671 3.34477 19.9621 3.53283 19.774L5.31712 17.9897Z" fill="white"/>
</g>
<defs>
<clipPath id="clip0_710_63">
<rect width="24" height="24" fill="white"/>
</clipPath>
</defs>
</svg>
